<svg width="300" height="77" viewBox="0 0 300 77" fill="none" xmlns="http://www.w3.org/2000/svg">
<rect width="300" height="77" fill="white"/>
<path d="M47.4403 15.875L50.6981 39.5469L62.1356 15.875H72.8231L66.9169 50H58.8544L60.3075 41.6328L63.7763 26.2109L51.8231 50H46.5028L42.6356 25.3203L40.4794 42.4297L39.1434 50H31.1278L37.0341 15.875H47.4403ZM94.0912 43.625H83.1928L80.1694 50H71.3334L89.4037 15.875H96.9506L103.255 50H94.9116L94.0912 43.625ZM86.1928 37.2734H93.2709L91.7709 25.5078L86.1928 37.2734ZM123.445 27.1719L130.617 15.875H140.133L127.992 33.125L134.672 50H125.789L122.039 38.4922L114.68 50H105.094L117.516 32.4688L111.047 15.875H119.836L123.445 27.1719Z" fill="#56D91E"/>
<path d="M156.456 38.3516H142.37V32.2344H156.456V38.3516ZM181.346 42.0547H168.573L164.495 50H158.26L176.682 15.875H181.885L188.495 50H182.682L181.346 42.0547ZM171.01 37.2734H180.573L178.253 23.1641L171.01 37.2734ZM192.912 50L197.318 24.6406L207.022 24.6641C209.334 24.7266 211.256 25.0938 212.787 25.7656C215.35 26.9062 216.561 28.8047 216.42 31.4609C216.264 33.9609 214.561 35.8438 211.311 37.1094C212.623 37.5 213.654 38.1719 214.404 39.125C215.17 40.0781 215.537 41.2266 215.506 42.5703C215.428 44.8828 214.475 46.6875 212.647 47.9844C210.834 49.2812 208.334 49.9531 205.147 50H192.912ZM200.365 39.1953L199.264 45.5L204.983 45.5234C206.498 45.4766 207.686 45.1641 208.545 44.5859C209.42 44.0078 209.928 43.2109 210.068 42.1953C210.225 41.3047 210.022 40.6016 209.459 40.0859C208.912 39.5547 207.998 39.2656 206.717 39.2188L200.365 39.1953ZM201.045 35.1172L205.311 35.1406C208.623 35.1406 210.451 34.125 210.795 32.0938C210.936 31.1875 210.701 30.4922 210.092 30.0078C209.498 29.5078 208.42 29.2344 206.858 29.1875L202.1 29.1641L201.045 35.1172ZM242.47 29.1641H234.502L230.869 50H225.314L228.923 29.1641H221.025L221.822 24.6406H243.267L242.47 29.1641ZM243.864 37.2266C244.13 34.7422 244.857 32.4844 246.044 30.4531C247.247 28.4219 248.786 26.8516 250.661 25.7422C252.536 24.6328 254.614 24.1094 256.896 24.1719C259.068 24.2031 260.943 24.7812 262.521 25.9062C264.099 27.0312 265.247 28.5703 265.966 30.5234C266.7 32.4766 266.958 34.6484 266.739 37.0391C266.489 39.7266 265.755 42.1016 264.536 44.1641C263.333 46.2266 261.786 47.8125 259.896 48.9219C258.021 50.0156 255.935 50.5312 253.638 50.4688C251.482 50.4375 249.614 49.8672 248.036 48.7578C246.474 47.6328 245.325 46.1016 244.591 44.1641C243.857 42.2109 243.591 40.0625 243.794 37.7188L243.864 37.2266ZM249.325 40.4375C249.403 42.0781 249.833 43.3984 250.614 44.3984C251.411 45.3828 252.513 45.8984 253.919 45.9453C255.825 45.9922 257.419 45.2578 258.7 43.7422C259.997 42.2266 260.81 40.1562 261.138 37.5312L261.278 35.2344C261.278 33.2344 260.88 31.6641 260.083 30.5234C259.286 29.3828 258.13 28.7812 256.614 28.7188C254.239 28.6562 252.364 29.8203 250.989 32.2109C250.161 33.6641 249.638 35.3359 249.419 37.2266C249.294 38.5391 249.263 39.6094 249.325 40.4375ZM115.731 64.0918C115.731 64.5137 115.602 64.9033 115.344 65.2607C115.092 65.6123 114.735 65.8936 114.272 66.1045C115.362 66.4854 115.907 67.2207 115.907 68.3105C115.907 69.1836 115.552 69.8809 114.843 70.4023C114.134 70.918 113.185 71.1758 111.995 71.1758C111.269 71.1758 110.607 71.0557 110.009 70.8154C109.411 70.5693 108.946 70.2236 108.612 69.7783C108.278 69.3271 108.111 68.7939 108.111 68.1787H110.238C110.238 68.5654 110.41 68.8906 110.756 69.1543C111.102 69.4121 111.538 69.541 112.066 69.541C112.587 69.541 113 69.4209 113.305 69.1807C113.616 68.9346 113.771 68.6152 113.771 68.2227C113.771 67.7598 113.636 67.4258 113.366 67.2207C113.097 67.0156 112.681 66.9131 112.118 66.9131H110.589V65.375H112.171C113.126 65.3633 113.604 64.9707 113.604 64.1973C113.604 63.8105 113.466 63.5088 113.191 63.292C112.915 63.0752 112.537 62.9668 112.057 62.9668C111.588 62.9668 111.193 63.084 110.87 63.3184C110.548 63.5469 110.387 63.8369 110.387 64.1885H108.26C108.26 63.3506 108.612 62.665 109.315 62.1318C110.018 61.5928 110.911 61.3232 111.995 61.3232C113.173 61.3232 114.09 61.5635 114.746 62.0439C115.403 62.5244 115.731 63.207 115.731 64.0918ZM124.484 71C124.39 70.8184 124.308 70.5225 124.238 70.1123C123.558 70.8213 122.726 71.1758 121.741 71.1758C120.786 71.1758 120.007 70.9033 119.404 70.3584C118.8 69.8135 118.498 69.1396 118.498 68.3369C118.498 67.3232 118.873 66.5469 119.623 66.0078C120.379 65.4629 121.457 65.1904 122.858 65.1904H124.167V64.5664C124.167 64.0742 124.029 63.6816 123.754 63.3887C123.479 63.0898 123.06 62.9404 122.497 62.9404C122.011 62.9404 121.613 63.0635 121.302 63.3096C120.991 63.5498 120.836 63.8574 120.836 64.2324H118.7C118.7 63.7109 118.873 63.2246 119.219 62.7734C119.565 62.3164 120.033 61.959 120.625 61.7012C121.223 61.4434 121.888 61.3145 122.62 61.3145C123.734 61.3145 124.621 61.5957 125.283 62.1582C125.946 62.7148 126.285 63.5 126.303 64.5137V68.8027C126.303 69.6582 126.423 70.3408 126.663 70.8506V71H124.484ZM122.137 69.4619C122.559 69.4619 122.954 69.3594 123.323 69.1543C123.698 68.9492 123.98 68.6738 124.167 68.3281V66.5352H123.016C122.225 66.5352 121.63 66.6729 121.232 66.9482C120.833 67.2236 120.634 67.6133 120.634 68.1172C120.634 68.5273 120.769 68.8555 121.038 69.1016C121.314 69.3418 121.68 69.4619 122.137 69.4619ZM137.684 71H135.548V63.2129H131.839V71H129.703V61.4902H137.684V71ZM148.66 71H146.524V67.8271C145.974 67.9561 145.394 68.0205 144.784 68.0205C143.483 68.0205 142.49 67.71 141.805 67.0889C141.119 66.4619 140.776 65.5654 140.776 64.3994V61.4814H142.912V64.3994C142.912 65.0908 143.064 65.5801 143.369 65.8672C143.68 66.1543 144.151 66.2979 144.784 66.2979C145.358 66.2979 145.939 66.2305 146.524 66.0957V61.4902H148.66V71ZM157.694 71C157.601 70.8184 157.519 70.5225 157.448 70.1123C156.769 70.8213 155.936 71.1758 154.952 71.1758C153.997 71.1758 153.218 70.9033 152.614 70.3584C152.011 69.8135 151.709 69.1396 151.709 68.3369C151.709 67.3232 152.084 66.5469 152.834 66.0078C153.59 65.4629 154.668 65.1904 156.068 65.1904H157.378V64.5664C157.378 64.0742 157.24 63.6816 156.965 63.3887C156.689 63.0898 156.27 62.9404 155.708 62.9404C155.222 62.9404 154.823 63.0635 154.513 63.3096C154.202 63.5498 154.047 63.8574 154.047 64.2324H151.911C151.911 63.7109 152.084 63.2246 152.43 62.7734C152.775 62.3164 153.244 61.959 153.836 61.7012C154.434 61.4434 155.099 61.3145 155.831 61.3145C156.944 61.3145 157.832 61.5957 158.494 62.1582C159.156 62.7148 159.496 63.5 159.514 64.5137V68.8027C159.514 69.6582 159.634 70.3408 159.874 70.8506V71H157.694ZM155.348 69.4619C155.77 69.4619 156.165 69.3594 156.534 69.1543C156.909 68.9492 157.19 68.6738 157.378 68.3281V66.5352H156.227C155.436 66.5352 154.841 66.6729 154.442 66.9482C154.044 67.2236 153.845 67.6133 153.845 68.1172C153.845 68.5273 153.979 68.8555 154.249 69.1016C154.524 69.3418 154.891 69.4619 155.348 69.4619ZM166.737 69.4707C167.27 69.4707 167.713 69.3154 168.064 69.0049C168.416 68.6943 168.603 68.3105 168.627 67.8535H170.64C170.616 68.4453 170.432 68.999 170.086 69.5146C169.74 70.0244 169.271 70.4287 168.68 70.7275C168.088 71.0264 167.449 71.1758 166.764 71.1758C165.433 71.1758 164.379 70.7451 163.599 69.8838C162.82 69.0225 162.431 67.833 162.431 66.3154V66.0957C162.431 64.6484 162.817 63.4912 163.591 62.624C164.364 61.751 165.419 61.3145 166.755 61.3145C167.886 61.3145 168.806 61.6455 169.515 62.3076C170.229 62.9639 170.604 63.8281 170.64 64.9004H168.627C168.603 64.3555 168.416 63.9072 168.064 63.5557C167.719 63.2041 167.276 63.0283 166.737 63.0283C166.046 63.0283 165.513 63.2803 165.138 63.7842C164.763 64.2822 164.572 65.041 164.566 66.0605V66.4033C164.566 67.4346 164.751 68.2051 165.12 68.7148C165.495 69.2188 166.034 69.4707 166.737 69.4707ZM180.816 63.1865H177.731V71H175.596V63.1865H172.546V61.4902H180.816V63.1865ZM189.261 61.4902H191.388V71H189.261V64.6543L185.535 71H183.408V61.4902H185.535V67.8359L189.261 61.4902Z" fill="#3D3D3D"/>
</svg>
